<?xml version="1.0" encoding="utf-8"?>
<!-- Generator: Adobe Illustrator 21.1.0, SVG Export Plug-In . SVG Version: 6.00 Build 0)  -->
<svg version="1.1" id="Calque_1" xmlns="http://www.w3.org/2000/svg" xmlns:xlink="http://www.w3.org/1999/xlink" x="0px" y="0px"
	 viewBox="0 0 68 35.3" style="enable-background:new 0 0 68 35.3;" xml:space="preserve">
<style type="text/css">
	.st0{fill:#EDC1DC;}
</style>
<path class="st0" d="M33.3,9.1c-2.9-2.9-7.7-2.9-10.6,0l-0.2,0.2c-2.9,2.9-2.9,7.7,0,10.6L32.6,30c0.8,0.8,2,0.8,2.8,0l10.1-10.1
	c2.9-2.9,2.9-7.7,0-10.6l-0.2-0.2c-2.9-2.9-7.7-2.9-10.6,0L34,9.8L33.3,9.1z M25.3,17.1c-1.4-1.4-1.4-3.6,0-4.9l0.2-0.2
	c1.4-1.4,3.6-1.4,4.9,0l2.1,2.1c0.8,0.8,2,0.8,2.8,0l2.1-2.1c1.4-1.4,3.6-1.4,4.9,0l0.2,0.2c1.4,1.4,1.4,3.6,0,4.9L34,25.8
	L25.3,17.1z M12.2,5.4C10.1,9.1,9,13.3,9,17.6s1.1,8.5,3.2,12.2c0.5,1,1.8,1.3,2.7,0.8c1-0.5,1.3-1.8,0.8-2.7
	c-1.8-3.1-2.7-6.6-2.7-10.3s0.9-7.2,2.7-10.3c0.5-1,0.2-2.2-0.8-2.7C14,4.1,12.7,4.4,12.2,5.4z M55.8,29.8c2.1-3.7,3.2-7.9,3.2-12.2
	s-1.1-8.5-3.2-12.2c-0.5-1-1.8-1.3-2.7-0.8c-1,0.5-1.3,1.8-0.8,2.7c1.8,3.1,2.7,6.6,2.7,10.3s-0.9,7.2-2.7,10.3
	c-0.5,1-0.2,2.2,0.8,2.7C54,31.1,55.3,30.8,55.8,29.8z M63.7,34.2c2.8-5,4.3-10.7,4.3-16.6S66.5,6,63.7,1c-0.5-1-1.8-1.3-2.7-0.8
	c-1,0.5-1.3,1.8-0.8,2.7c2.5,4.5,3.8,9.5,3.8,14.7s-1.3,10.2-3.8,14.7c-0.5,1-0.2,2.2,0.8,2.7C61.9,35.5,63.1,35.2,63.7,34.2z
	 M4.3,1C1.5,6,0,11.7,0,17.6s1.5,11.6,4.3,16.6c0.5,1,1.8,1.3,2.7,0.8c1-0.5,1.3-1.8,0.8-2.7C5.3,27.8,4,22.8,4,17.6
	S5.3,7.4,7.8,2.9C8.3,1.9,8,0.7,7,0.2C6.1-0.3,4.9,0,4.3,1z"/>
</svg>
